:FULLY-SPECIFIED
:FORCE-ALL-JOINTS-BE-3DOF
:DEGREES
33
root 7.98788 15.7203 -32.1549 7.66181 -8.04257 -7.14013
lfemur -41.3027 5.59035 -9.26198
ltibia 24.2109 -0 0
lfoot -8.82815 11.3198 -0.0288807
ltoes -11.9801 0 0
rfemur 19.1826 6.84474 30.4611
rtibia 9.54168e-15 0 0
rfoot -12.4544 -0.679461 -0.0111723
rtoes -24.3179 0 0
lowerback -8.42272 1.4919 3.6631
upperback -0.987436 1.49574 3.63429
thorax 3.69758 0.768747 1.88667
lowerneck -20.7506 -4.53056 -11.7079
upperneck 16.3097 -5.7998 14.5832
head 9.36306 -1.9102 6.24213
lclavicle -1.38673e-14 -5.43344e-15 0
lhumerus -43.2407 -8.19405 91.2114
lradius 26.0264 -0 0
lwrist 3.19303 0 0
lhand -10.6665 -24.2111 -0.0322742
lfingers 7.12502 0 0
lthumb 15.344 5.23124 -0.0196577
rclavicle -1.38673e-14 -5.43344e-15 0
rhumerus -44.1337 20.7692 -93.0281
rradius 60.5926 -0 0
rwrist -29.6353 0 0
rhand -30.3455 -30.808 -0.000489808
rfingers 7.12502 0 0
rthumb -3.65106 -60.7566 -0.000465043
34
root 8.01686 15.7097 -31.9878 7.69614 -8.13994 -7.116
lfemur -41.7013 6.15345 -9.64947
ltibia 25.4847 -0 0
lfoot -6.67861 10.825 -0.0350991
ltoes -10.7046 0 0
rfemur 19.7919 6.75797 30.2034
rtibia 6.36113e-15 0 0
rfoot -11.5092 -0.847217 -0.0163397
rtoes -15.0617 0 0
lowerback -8.56148 1.44775 3.47014
upperback -0.961248 1.44067 3.73644
thorax 3.79542 0.738598 2.09968
lowerneck -20.8737 -4.53429 -11.6265
upperneck 16.2606 -5.7786 14.4329
head 9.35682 -1.90652 6.17421
lclavicle -1.22718e-14 -9.54165e-15 0
lhumerus -43.4522 -8.2399 91.4873
lradius 25.9088 -0 0
lwrist 3.09376 0 0
lhand -10.7763 -23.7793 -0.051293
lfingers 7.12502 0 0
lthumb 15.2398 5.6922 -0.0301923
rclavicle -1.22718e-14 -9.54165e-15 0
rhumerus -44.2597 20.8628 -93.1462
rradius 60.2022 -0 0
rwrist -29.3946 0 0
rhand -30.187 -30.4734 -0.00186937
rfingers 7.12502 0 0
rthumb -3.498 -60.4247 -0.00178324
35
root 8.04585 15.6991 -31.8208 7.71948 -8.24541 -7.08026
lfemur -42.1 6.68334 -10.0297
ltibia 26.8177 -0 0
lfoot -4.55011 10.3544 -0.0316824
ltoes -9.34664 0 0
rfemur 20.4114 6.67899 29.9311
rtibia 3.18057e-15 0 0
rfoot -10.4585 -1.00736 -0.0163037
rtoes -6.04085 0 0
lowerback -8.6749 1.40683 3.27054
upperback -0.939888 1.393 3.83216
thorax 3.87432 0.711754 2.30946
lowerneck -20.988 -4.54058 -11.551
upperneck 16.2024 -5.76147 14.2919
head 9.34702 -1.90454 6.10984
lclavicle -1.06764e-14 -1.36499e-14 0
lhumerus -43.6561 -8.27878 91.7489
lradius 25.7825 -0 0
lwrist 2.97619 0 0
lhand -10.6464 -23.2495 -0.0565096
lfingers 7.12502 0 0
lthumb 15.3657 6.22108 -0.0320245
rclavicle -1.06764e-14 -1.36499e-14 0
rhumerus -44.389 20.9319 -93.2586
rradius 59.7799 -0 0
rwrist -29.1797 0 0
rhand -30.0527 -30.1827 -0.0033141
rfingers 7.12502 0 0
rthumb -3.36837 -60.1363 -0.00316557
36
root 8.07483 15.6885 -31.6538 7.73484 -8.35055 -7.03371
lfemur -42.4685 7.16886 -10.4154
ltibia 28.1515 -0 0
lfoot -2.67538 9.89037 -0.0190106
ltoes -8.04611 0 0
rfemur 21.0224 6.59926 29.6481
rtibia 8.33333e-21 0 0
rfoot -9.37642 -1.0995 -0.0102576
rtoes 0.825462 -0 0
lowerback -8.76082 1.36753 3.08778
upperback -0.930994 1.34907 3.91464
thorax 3.92579 0.68679 2.49536
lowerneck -21.0866 -4.54753 -11.5078
upperneck 16.1487 -5.74493 14.1841
head 9.33823 -1.90198 6.0634
lclavicle -9.08094e-15 -1.77581e-14 0
lhumerus -43.841 -8.27106 91.9577
lradius 25.6171 -0 0
lwrist 2.79095 0 0
lhand -10.1189 -22.6571 -0.0405663
lfingers 7.12502 0 0
lthumb 15.8728 6.75882 -0.0222133
rclavicle -9.08094e-15 -1.77581e-14 0
rhumerus -44.5326 20.9654 -93.3722
rradius 59.3268 -0 0
rwrist -28.9666 0 0
rhand -29.9873 -30.0317 -0.00324906
rfingers 7.12502 0 0
rthumb -3.30517 -59.9862 -0.00310534
37
root 8.10381 15.6779 -31.4868 7.7452 -8.44692 -6.97722
lfemur -42.7763 7.59908 -10.8186
ltibia 29.4276 0 0
lfoot -1.28713 9.41507 0
ltoes -6.94272 0 0
rfemur 21.6062 6.50996 29.3578
rtibia -3.18055e-15 0 0
rfoot -8.33698 -1.06325 0
rtoes 3.61817 0 0
lowerback -8.81713 1.32831 2.94539
upperback -0.942207 1.30523 3.97714
thorax 3.94135 0.662346 2.63672
lowerneck -21.163 -4.55331 -11.5231
upperneck 16.1126 -5.72538 14.1334
head 9.33499 -1.89653 6.0493
lclavicle -7.48549e-15 -2.18663e-14 0
lhumerus -43.995 -8.1774 92.075
lradius 25.382 0 0
lwrist 2.4887 0 0
lhand -9.03565 -22.037 0
lfingers 7.12502 0 0
lthumb 16.9121 7.24666 0
rclavicle -7.48549e-15 -2.18663e-14 0
rhumerus -44.7013 20.9519 -93.4939
rradius 58.8441 0 0
rwrist -28.7311 0 0
rhand -30.0352 -30.116 0
rfingers 7.12502 0 0
rthumb -3.35142 -60.0694 0
38
root 8.1417 15.6732 -31.3173 7.75646 -8.52762 -6.93669
lfemur -43.0734 7.98979 -11.2139
ltibia 30.7217 -0 0
lfoot -0.376896 8.89995 0.0141983
ltoes -5.98462 0 0
rfemur 22.2946 6.41702 29.106
rtibia 7.95139e-15 0 0
rfoot -7.2994 -0.850327 0.0125326
rtoes 1.09515 -0 0
lowerback -8.85054 1.29481 2.87013
upperback -0.970731 1.26575 4.02244
thorax 3.92792 0.640939 2.72164
lowerneck -21.2121 -4.56324 -11.6105
upperneck 16.0826 -5.70925 14.1587
head 9.33455 -1.89038 6.07543
lclavicle -6.41676e-15 -1.4445e-14 0
lhumerus -44.1104 -8.00436 92.0939
lradius 25.0601 -0 0
lwrist 2.04497 0 0
lhand -7.04586 -21.3079 0.0663751
lfingers 7.12502 0 0
lthumb 18.8195 7.71759 0.0343972
rclavicle -6.41676e-15 -1.4445e-14 0
rhumerus -44.9019 20.8713 -93.6263
rradius 58.3481 -0 0
rwrist -28.4859 0 0
rhand -30.2579 -30.584 0.00767839
rfingers 7.12502 0 0
rthumb -3.5665 -60.5329 0.00734252
39
root 8.17958 15.6686 -31.1477 7.76741 -8.59802 -6.91663
lfemur -43.3934 8.3531 -11.5859
ltibia 32.0956 -0 0
lfoot 0.243306 8.35333 0.0182196
ltoes -5.04966 0 0
rfemur 23.1289 6.32884 28.8987
rtibia 1.90833e-14 0 0
rfoot -6.19626 -0.49923 0.0232474
rtoes -5.45675 0 0
lowerback -8.86418 1.26959 2.8485
upperback -1.00986 1.23443 4.05653
thorax 3.89372 0.624304 2.76428
lowerneck -21.2384 -4.57992 -11.7518
upperneck 16.0457 -5.7006 14.2447
head 9.33273 -1.88578 6.13186
lclavicle -5.34804e-15 -7.0237e-15 0
lhumerus -44.195 -7.78518 92.0436
lradius 24.6724 -0 0
lwrist 1.49435 0 0
lhand -4.20501 -20.4235 0.128893
lfingers 7.12502 0 0
lthumb 21.5415 8.22622 0.0657295
rclavicle -5.34804e-15 -7.0237e-15 0
rhumerus -45.1266 20.7285 -93.7638
rradius 57.8411 -0 0
rwrist -28.253 0 0
rhand -30.6322 -31.3888 0.0154687
rfingers 7.12502 0 0
rthumb -3.92796 -61.3304 0.014791
40
root 8.21747 15.6639 -30.9782 7.77037 -8.66806 -6.88572
lfemur -43.6812 8.67306 -11.9606
ltibia 33.4702 -0 0
lfoot 0.609985 7.81269 0.0151671
ltoes -4.17209 0 0
rfemur 23.9545 6.24017 28.6801
rtibia 3.02153e-14 0 0
rfoot -5.06167 -0.0799329 0.027434
rtoes -14.1632 0 0
lowerback -8.85047 1.24645 2.84362
upperback -1.06137 1.20692 4.07745
thorax 3.83219 0.609911 2.78311
lowerneck -21.249 -4.59747 -11.9254
upperneck 16.0132 -5.69229 14.3638
head 9.33192 -1.8806 6.20623
lclavicle -4.27931e-15 3.976e-16 0
lhumerus -44.2609 -7.52059 91.9402
lradius 24.2456 -0 0
lwrist 0.876064 0 0
lhand -0.96529 -19.473 0.153745
lfingers 7.12502 0 0
lthumb 24.6451 8.74532 0.0783692
rclavicle -4.27931e-15 3.976e-16 0
rhumerus -45.3645 20.5497 -93.9013
rradius 57.3033 -0 0
rwrist -28.0219 0 0
rhand -31.0754 -32.3334 0.0174822
rfingers 7.12502 0 0
rthumb -4.35595 -62.2663 0.0167116
41
root 8.25536 15.6593 -30.8087 7.75757 -8.7477 -6.81264
lfemur -43.8817 8.93423 -12.3632
ltibia 34.7666 -0 0
lfoot 0.759567 7.3157 0.00824303
ltoes -3.38616 0 0
rfemur 24.6176 6.14606 28.3948
rtibia 4.13472e-14 0 0
rfoot -3.9298 0.337485 0.0234201
rtoes -23.1497 0 0
lowerback -8.80184 1.21917 2.81858
upperback -1.12704 1.17884 4.08324
thorax 3.73679 0.595237 2.79657
lowerneck -21.2512 -4.60997 -12.1095
upperneck 15.9966 -5.6773 14.4887
head 9.33453 -1.87265 6.28618
lclavicle -3.21058e-15 7.8189e-15 0
lhumerus -44.3199 -7.21125 91.7993
lradius 23.8063 -0 0
lwrist 0.229347 0 0
lhand 2.22035 -18.5484 0.129099
lfingers 7.12502 0 0
lthumb 27.6969 9.24634 0.0668585
rclavicle -3.21058e-15 7.8189e-15 0
rhumerus -45.6048 20.3612 -94.0336
rradius 56.7151 -0 0
rwrist -27.7819 0 0
rhand -31.5047 -33.2205 0.0123803
rfingers 7.12502 0 0
rthumb -4.77051 -63.145 0.0118265
42
root 8.29324 15.6547 -30.6391 7.72109 -8.84681 -6.66598
lfemur -43.9396 9.12181 -12.8186
ltibia 35.9058 -0 0
lfoot 0.728374 6.90014 0.0014407
ltoes -2.72613 0 0
rfemur 24.9642 6.04097 27.9877
rtibia 5.24792e-14 0 0
rfoot -2.83481 0.682943 0.0127595
rtoes -30.5421 0 0
lowerback -8.71063 1.18164 2.73648
upperback -1.20866 1.14582 4.07196
thorax 3.60095 0.577804 2.82315
lowerneck -21.2523 -4.61156 -12.2826
upperneck 16.0071 -5.64864 14.5921
head 9.34295 -1.85981 6.35934
lclavicle -2.14186e-15 1.52402e-14 0
lhumerus -44.3838 -6.85783 91.6366
lradius 23.3809 -0 0
lwrist -0.406571 0 0
lhand 4.89899 -17.7418 0.0673541
lfingers 7.12502 0 0
lthumb 30.2637 9.70069 0.0362101
rclavicle -2.14186e-15 1.52402e-14 0
rhumerus -45.837 20.1895 -94.1561
rradius 56.0567 -0 0
rwrist -27.5226 0 0
rhand -31.8374 -33.8531 0.00414488
rfingers 7.12502 0 0
rthumb -5.09174 -63.7712 0.00395055
43
root 8.33113 15.65 -30.4696 7.65281 -8.97514 -6.41427
lfemur -43.7996 9.22212 -13.3516
ltibia 36.8086 0 0
lfoot 0.55264 6.60375 0
ltoes -2.22627 0 0
rfemur 24.8411 5.91629 27.4045
rtibia 6.36111e-14 0 0
rfoot -1.81081 0.886455 0
rtoes -34.4658 0 0
lowerback -8.56913 1.12797 2.56035
upperback -1.30801 1.10347 4.04168
thorax 3.41808 0.555243 2.88133
lowerneck -21.2596 -4.59641 -12.423
upperneck 16.0562 -5.59935 14.6465
head 9.35958 -1.83992 6.41337
lclavicle -1.07313e-15 2.26615e-14 0
lhumerus -44.4645 -6.46103 91.4677
lradius 22.9962 0 0
lwrist -0.992459 0 0
lhand 6.61839 -17.1426 0
lfingers 7.12502 0 0
lthumb 31.9124 10.0809 0
rclavicle -1.07313e-15 2.26615e-14 0
rhumerus -46.0509 20.0609 -94.2645
rradius 55.3083 0 0
rwrist -27.2335 0 0
rhand -31.9908 -34.034 0
rfingers 7.12502 0 0
rthumb -5.23988 -63.9492 0
